<mxfile host="app.diagrams.net" modified="2024-03-29T08:57:47.729Z" agent="Mozilla/5.0 (Windows NT 10.0; Win64; x64) AppleWebKit/537.36 (KHTML, like Gecko) Chrome/120.0.0.0 YaBrowser/24.1.0.0 Safari/537.36" etag="MDFvj8-t-GUxbRHKF-kU" version="24.2.1" type="device">
  <diagram name="Страница — 1" id="RuV0JtGczw9dMjUFS7Q5">
    <mxGraphModel dx="1829" dy="567" grid="1" gridSize="10" guides="1" tooltips="1" connect="1" arrows="1" fold="1" page="1" pageScale="1" pageWidth="827" pageHeight="1169" math="0" shadow="0">
      <root>
        <mxCell id="0" />
        <mxCell id="1" parent="0" />
        <mxCell id="nbD8Y9kOyImNZEbtmRXE-7" value="" style="edgeStyle=orthogonalEdgeStyle;rounded=0;orthogonalLoop=1;jettySize=auto;html=1;entryX=0.5;entryY=0;entryDx=0;entryDy=0;" parent="1" source="nbD8Y9kOyImNZEbtmRXE-1" target="nbD8Y9kOyImNZEbtmRXE-8" edge="1">
          <mxGeometry relative="1" as="geometry">
            <mxPoint x="120" y="220" as="targetPoint" />
          </mxGeometry>
        </mxCell>
        <mxCell id="nbD8Y9kOyImNZEbtmRXE-10" value="" style="edgeStyle=orthogonalEdgeStyle;rounded=0;orthogonalLoop=1;jettySize=auto;html=1;" parent="1" source="nbD8Y9kOyImNZEbtmRXE-1" target="nbD8Y9kOyImNZEbtmRXE-9" edge="1">
          <mxGeometry relative="1" as="geometry" />
        </mxCell>
        <mxCell id="QkkQBAIxFqY1bjjjgmOk-2" style="edgeStyle=orthogonalEdgeStyle;rounded=0;orthogonalLoop=1;jettySize=auto;html=1;entryX=0;entryY=0;entryDx=0;entryDy=0;" edge="1" parent="1" source="nbD8Y9kOyImNZEbtmRXE-1" target="nbD8Y9kOyImNZEbtmRXE-14">
          <mxGeometry relative="1" as="geometry" />
        </mxCell>
        <mxCell id="nbD8Y9kOyImNZEbtmRXE-1" value="Студенты" style="rounded=0;whiteSpace=wrap;html=1;" parent="1" vertex="1">
          <mxGeometry x="60" y="80" width="120" height="60" as="geometry" />
        </mxCell>
        <mxCell id="nbD8Y9kOyImNZEbtmRXE-13" style="edgeStyle=orthogonalEdgeStyle;rounded=0;orthogonalLoop=1;jettySize=auto;html=1;entryX=0.5;entryY=1;entryDx=0;entryDy=0;" parent="1" source="nbD8Y9kOyImNZEbtmRXE-2" target="nbD8Y9kOyImNZEbtmRXE-14" edge="1">
          <mxGeometry relative="1" as="geometry">
            <mxPoint x="130" y="410" as="targetPoint" />
          </mxGeometry>
        </mxCell>
        <mxCell id="nbD8Y9kOyImNZEbtmRXE-16" value="" style="edgeStyle=orthogonalEdgeStyle;rounded=0;orthogonalLoop=1;jettySize=auto;html=1;" parent="1" source="nbD8Y9kOyImNZEbtmRXE-2" edge="1">
          <mxGeometry relative="1" as="geometry">
            <mxPoint x="320" y="565" as="targetPoint" />
          </mxGeometry>
        </mxCell>
        <mxCell id="nbD8Y9kOyImNZEbtmRXE-18" value="" style="edgeStyle=orthogonalEdgeStyle;rounded=0;orthogonalLoop=1;jettySize=auto;html=1;" parent="1" source="nbD8Y9kOyImNZEbtmRXE-2" target="nbD8Y9kOyImNZEbtmRXE-17" edge="1">
          <mxGeometry relative="1" as="geometry" />
        </mxCell>
        <mxCell id="nbD8Y9kOyImNZEbtmRXE-2" value="Преподаватели" style="rounded=0;whiteSpace=wrap;html=1;" parent="1" vertex="1">
          <mxGeometry y="535" width="120" height="60" as="geometry" />
        </mxCell>
        <mxCell id="nbD8Y9kOyImNZEbtmRXE-20" value="" style="edgeStyle=orthogonalEdgeStyle;rounded=0;orthogonalLoop=1;jettySize=auto;html=1;" parent="1" source="nbD8Y9kOyImNZEbtmRXE-3" target="nbD8Y9kOyImNZEbtmRXE-19" edge="1">
          <mxGeometry relative="1" as="geometry" />
        </mxCell>
        <mxCell id="nbD8Y9kOyImNZEbtmRXE-22" value="" style="edgeStyle=orthogonalEdgeStyle;rounded=0;orthogonalLoop=1;jettySize=auto;html=1;" parent="1" source="nbD8Y9kOyImNZEbtmRXE-3" target="nbD8Y9kOyImNZEbtmRXE-21" edge="1">
          <mxGeometry relative="1" as="geometry" />
        </mxCell>
        <mxCell id="nbD8Y9kOyImNZEbtmRXE-3" value="Администраторы&amp;nbsp;" style="rounded=0;whiteSpace=wrap;html=1;" parent="1" vertex="1">
          <mxGeometry x="650" y="90" width="120" height="60" as="geometry" />
        </mxCell>
        <mxCell id="nbD8Y9kOyImNZEbtmRXE-26" value="" style="edgeStyle=orthogonalEdgeStyle;rounded=0;orthogonalLoop=1;jettySize=auto;html=1;" parent="1" source="nbD8Y9kOyImNZEbtmRXE-4" target="nbD8Y9kOyImNZEbtmRXE-25" edge="1">
          <mxGeometry relative="1" as="geometry" />
        </mxCell>
        <mxCell id="nbD8Y9kOyImNZEbtmRXE-4" value="Расписание занятий" style="rounded=0;whiteSpace=wrap;html=1;" parent="1" vertex="1">
          <mxGeometry x="610" y="390" width="120" height="60" as="geometry" />
        </mxCell>
        <mxCell id="nbD8Y9kOyImNZEbtmRXE-8" value="Запрос расписания занятий" style="ellipse;whiteSpace=wrap;html=1;aspect=fixed;" parent="1" vertex="1">
          <mxGeometry x="80" y="245" width="80" height="80" as="geometry" />
        </mxCell>
        <mxCell id="QkkQBAIxFqY1bjjjgmOk-3" style="edgeStyle=orthogonalEdgeStyle;rounded=0;orthogonalLoop=1;jettySize=auto;html=1;entryX=0.5;entryY=0;entryDx=0;entryDy=0;" edge="1" parent="1" source="nbD8Y9kOyImNZEbtmRXE-9" target="nbD8Y9kOyImNZEbtmRXE-3">
          <mxGeometry relative="1" as="geometry" />
        </mxCell>
        <mxCell id="QkkQBAIxFqY1bjjjgmOk-10" value="Новые данные о пользователе" style="edgeLabel;html=1;align=center;verticalAlign=middle;resizable=0;points=[];" vertex="1" connectable="0" parent="QkkQBAIxFqY1bjjjgmOk-3">
          <mxGeometry x="-0.4338" y="-1" relative="1" as="geometry">
            <mxPoint as="offset" />
          </mxGeometry>
        </mxCell>
        <mxCell id="nbD8Y9kOyImNZEbtmRXE-9" value="Обновление информации о себе" style="ellipse;whiteSpace=wrap;html=1;rounded=0;" parent="1" vertex="1">
          <mxGeometry x="355" width="80" height="80" as="geometry" />
        </mxCell>
        <mxCell id="nbD8Y9kOyImNZEbtmRXE-14" value="Просмотр списка студентов" style="ellipse;whiteSpace=wrap;html=1;aspect=fixed;" parent="1" vertex="1">
          <mxGeometry x="-30" y="360" width="80" height="80" as="geometry" />
        </mxCell>
        <mxCell id="QkkQBAIxFqY1bjjjgmOk-7" style="edgeStyle=orthogonalEdgeStyle;rounded=0;orthogonalLoop=1;jettySize=auto;html=1;entryX=0.5;entryY=0;entryDx=0;entryDy=0;" edge="1" parent="1" source="nbD8Y9kOyImNZEbtmRXE-17" target="nbD8Y9kOyImNZEbtmRXE-1">
          <mxGeometry relative="1" as="geometry">
            <Array as="points">
              <mxPoint x="-120" y="60" />
              <mxPoint x="120" y="60" />
            </Array>
          </mxGeometry>
        </mxCell>
        <mxCell id="QkkQBAIxFqY1bjjjgmOk-12" value="Ведомость" style="edgeLabel;html=1;align=center;verticalAlign=middle;resizable=0;points=[];" vertex="1" connectable="0" parent="QkkQBAIxFqY1bjjjgmOk-7">
          <mxGeometry x="-0.5974" y="2" relative="1" as="geometry">
            <mxPoint as="offset" />
          </mxGeometry>
        </mxCell>
        <mxCell id="nbD8Y9kOyImNZEbtmRXE-17" value="Проверка и выставление оценок" style="ellipse;whiteSpace=wrap;html=1;rounded=0;" parent="1" vertex="1">
          <mxGeometry x="-150" y="420" width="80" height="80" as="geometry" />
        </mxCell>
        <mxCell id="QkkQBAIxFqY1bjjjgmOk-4" style="edgeStyle=orthogonalEdgeStyle;rounded=0;orthogonalLoop=1;jettySize=auto;html=1;entryX=1;entryY=0.75;entryDx=0;entryDy=0;" edge="1" parent="1" source="nbD8Y9kOyImNZEbtmRXE-19" target="nbD8Y9kOyImNZEbtmRXE-1">
          <mxGeometry relative="1" as="geometry" />
        </mxCell>
        <mxCell id="QkkQBAIxFqY1bjjjgmOk-9" value="Данные для входа в учетную запись" style="edgeLabel;html=1;align=center;verticalAlign=middle;resizable=0;points=[];" vertex="1" connectable="0" parent="QkkQBAIxFqY1bjjjgmOk-4">
          <mxGeometry x="0.2509" y="2" relative="1" as="geometry">
            <mxPoint as="offset" />
          </mxGeometry>
        </mxCell>
        <mxCell id="nbD8Y9kOyImNZEbtmRXE-19" value="Регистрация новых пользователей" style="ellipse;whiteSpace=wrap;html=1;rounded=0;" parent="1" vertex="1">
          <mxGeometry x="450" y="80" width="80" height="80" as="geometry" />
        </mxCell>
        <mxCell id="QkkQBAIxFqY1bjjjgmOk-5" style="edgeStyle=orthogonalEdgeStyle;rounded=0;orthogonalLoop=1;jettySize=auto;html=1;" edge="1" parent="1" source="nbD8Y9kOyImNZEbtmRXE-21" target="nbD8Y9kOyImNZEbtmRXE-4">
          <mxGeometry relative="1" as="geometry" />
        </mxCell>
        <mxCell id="nbD8Y9kOyImNZEbtmRXE-21" value="Изменение расписания занятий" style="ellipse;whiteSpace=wrap;html=1;rounded=0;" parent="1" vertex="1">
          <mxGeometry x="630" y="220" width="80" height="80" as="geometry" />
        </mxCell>
        <mxCell id="QkkQBAIxFqY1bjjjgmOk-6" style="edgeStyle=orthogonalEdgeStyle;rounded=0;orthogonalLoop=1;jettySize=auto;html=1;" edge="1" parent="1" source="nbD8Y9kOyImNZEbtmRXE-23" target="nbD8Y9kOyImNZEbtmRXE-4">
          <mxGeometry relative="1" as="geometry" />
        </mxCell>
        <mxCell id="nbD8Y9kOyImNZEbtmRXE-23" value="Добавление новых занятий" style="ellipse;whiteSpace=wrap;html=1;rounded=0;" parent="1" vertex="1">
          <mxGeometry x="320" y="515" width="80" height="80" as="geometry" />
        </mxCell>
        <mxCell id="QkkQBAIxFqY1bjjjgmOk-8" style="edgeStyle=orthogonalEdgeStyle;rounded=0;orthogonalLoop=1;jettySize=auto;html=1;entryX=1;entryY=0.5;entryDx=0;entryDy=0;" edge="1" parent="1" source="nbD8Y9kOyImNZEbtmRXE-25" target="nbD8Y9kOyImNZEbtmRXE-8">
          <mxGeometry relative="1" as="geometry" />
        </mxCell>
        <mxCell id="nbD8Y9kOyImNZEbtmRXE-25" value="Отображение информации о занятиях для студентов и преподавателей" style="ellipse;whiteSpace=wrap;html=1;rounded=0;" parent="1" vertex="1">
          <mxGeometry x="340" y="230" width="110" height="110" as="geometry" />
        </mxCell>
      </root>
    </mxGraphModel>
  </diagram>
</mxfile>
